<?xml version="1.0" encoding="UTF-8" standalone="no"?>
<!DOCTYPE svg PUBLIC "-//W3C//DTD SVG 1.1//EN" "http://www.w3.org/Graphics/SVG/1.1/DTD/svg11.dtd">
<svg width="100%" height="100%" viewBox="0 0 2481 2481" version="1.1" xmlns="http://www.w3.org/2000/svg" xmlns:xlink="http://www.w3.org/1999/xlink" xml:space="preserve" xmlns:serif="http://www.serif.com/" style="fill-rule:evenodd;clip-rule:evenodd;stroke-linejoin:round;stroke-miterlimit:2;">
    <g transform="matrix(1,0,0,1,-3938,0)">
        <g id="Artboard1" transform="matrix(0.707071,0,0,1,3938.67,0)">
            <rect x="0" y="0" width="3507.87" height="2480.32" style="fill:none;"/>
            <g transform="matrix(4.36158,0,0,3.08395,-6550.11,-2728.44)">
                <g transform="matrix(-0.878131,0.599158,-0.378282,-0.554413,4207.5,633.013)">
                    <circle cx="2134.32" cy="1109.44" r="319.063" style="fill:rgb(255,251,240);"/>
                </g>
                <g transform="matrix(1,0,0,1,-302.637,144.161)">
                    <path d="M2237.92,1293.56C2213.69,1310.94 2186.39,1327.1 2155.85,1341.55C1720.31,1139.73 1901.69,729.663 2142.31,935.358C2338.22,768.072 2460.96,966.425 2360.98,1156C2332.05,1127.19 2307.95,1114.08 2287.79,1095.59C2253.21,1063.86 2238.95,1037.72 2220.49,1015.39C2189.21,977.572 2155.95,981.474 2144.53,998.89C2122.81,981.691 2081.54,989.537 2084.85,1027.52C2041.77,1026.85 2046.98,1082.81 2060.44,1089.01C2042.36,1111.01 2045.37,1157.73 2107.46,1165.57C2125.24,1199.63 2130.97,1197.22 2184.32,1224.64C2221.95,1243.99 2233.79,1273.84 2237.92,1293.56Z" style="fill:rgb(100,163,216);"/>
                    <path d="M2194.34,1132.02C2258.76,1120.34 2222.96,1082.47 2196.22,1081.16C2146.81,1078.72 2140.51,1091.39 2141.97,1129.38C2143.3,1164.19 2192.45,1187.4 2194.34,1132.02Z" style="fill:rgb(100,163,216);"/>
                    <g transform="matrix(1.10527,0.384329,-0.359648,1.03429,167.406,-847.912)">
                        <ellipse cx="2097.32" cy="1081.16" rx="18.273" ry="13.187" style="fill:rgb(100,163,216);"/>
                    </g>
                    <g transform="matrix(0.995253,0.129975,-0.130878,1.00217,157.042,-235.15)">
                        <ellipse cx="2097.32" cy="1081.16" rx="18.273" ry="13.187" style="fill:rgb(100,163,216);"/>
                    </g>
                    <g transform="matrix(0.740603,0.703103,-0.702653,0.740129,1333.56,-1230.34)">
                        <ellipse cx="2097.32" cy="1081.16" rx="18.273" ry="13.187" style="fill:rgb(100,163,216);"/>
                    </g>
                    <g transform="matrix(0.666064,0.632339,-0.702653,0.740129,1541.74,-1091.93)">
                        <ellipse cx="2097.32" cy="1081.16" rx="18.273" ry="13.187" style="fill:rgb(100,163,216);"/>
                    </g>
                </g>
            </g>
        </g>
    </g>
</svg>
